# WaveFront *.obj file (generated by Autodesk ATF)

mtllib fa32e2a9-70ce-4051-9e73-1224359fc4f1.mtl

g Body2

v 0.000000 0.000000 0.000000
v 0.000000 -86.275903 -57.735027
v 50.000000 0.000000 -86.602540
v -50.000000 0.000000 -86.602540
vt 0.000000 -0.000000 0.000000
vt -5.000000 9.097728 0.000000
vt -10.000000 0.000000 0.000000
vt 0.000000 0.000000 0.000000
vt -5.000000 9.097728 0.000000
vt -10.000000 0.000000 0.000000
vt -0.000000 0.000000 0.000000
vt -5.000000 9.097728 0.000000
vt -10.000000 -0.000000 0.000000
vt -5.000000 4.330127 0.000000
vt 0.000000 -4.330127 0.000000
vt 5.000000 4.330127 0.000000
vn 0.082127 -0.031730 0.047416
vn 0.082127 -0.031730 0.047416
vn 0.082127 -0.031730 0.047416
vn 0.000000 -0.031730 -0.094832
vn 0.000000 -0.031730 -0.094832
vn 0.000000 -0.031730 -0.094832
vn -0.082127 -0.031730 0.047416
vn -0.082127 -0.031730 0.047416
vn -0.082127 -0.031730 0.047416
vn 0.000000 0.100000 0.000000
vn 0.000000 0.100000 0.000000
vn 0.000000 0.100000 0.000000
usemtl Steel_-_Satin
f 1/1/1 2/2/2 3/3/3
f 3/4/4 2/5/5 4/6/6
f 4/7/7 2/8/8 1/9/9
f 4/10/10 1/11/11 3/12/12
# 4 vertices
# 12 texture params
# 12 normals
# 4 facets

# 1 groups
